sfk_cyclingleg_states
version=1
nRows=12
nColumns=53
inDegrees=yes

# SIMM Motion File Header:
name sfk_cyclingleg_states
datacolumns 53
datarows 12
otherdata 1
range 0.00000000 0.03626079
endheader
time	/jointset/bb/crank_angle/value	/jointset/bb/crank_angle/speed	/jointset/spindle/pedal_angle_r/value	/jointset/spindle/pedal_angle_r/speed	/jointset/ground_pelvis/pelvis_tilt/value	/jointset/ground_pelvis/pelvis_tilt/speed	/jointset/ground_pelvis/pelvis_list/value	/jointset/ground_pelvis/pelvis_list/speed	/jointset/ground_pelvis/pelvis_rotation/value	/jointset/ground_pelvis/pelvis_rotation/speed	/jointset/ground_pelvis/pelvis_tx/value	/jointset/ground_pelvis/pelvis_tx/speed	/jointset/ground_pelvis/pelvis_ty/value	/jointset/ground_pelvis/pelvis_ty/speed	/jointset/ground_pelvis/pelvis_tz/value	/jointset/ground_pelvis/pelvis_tz/speed	/jointset/hip_r/hip_angle_r/value	/jointset/hip_r/hip_angle_r/speed	/jointset/hip_r/hip_adduction_r/value	/jointset/hip_r/hip_adduction_r/speed	/jointset/hip_r/hip_rotation_r/value	/jointset/hip_r/hip_rotation_r/speed	/jointset/knee_r/knee_angle_r/value	/jointset/knee_r/knee_angle_r/speed	/jointset/knee_r/tib_tx_r/value	/jointset/knee_r/tib_tx_r/speed	/jointset/knee_r/tib_ty_r/value	/jointset/knee_r/tib_ty_r/speed	/jointset/tib_pat_r/pat_angle_r/value	/jointset/tib_pat_r/pat_angle_r/speed	/jointset/tib_pat_r/pat_tx_r/value	/jointset/tib_pat_r/pat_tx_r/speed	/jointset/tib_pat_r/pat_ty_r/value	/jointset/tib_pat_r/pat_ty_r/speed	/jointset/ankle_r/ankle_angle_r/value	/jointset/ankle_r/ankle_angle_r/speed	/jointset/subtalar_r/subtalar_angle_r/value	/jointset/subtalar_r/subtalar_angle_r/speed	/jointset/mtp_r/mtp_angle_r/value	/jointset/mtp_r/mtp_angle_r/speed	/forceset/bifemlh_r/activation	/forceset/bifemlh_r/fiber_length	/forceset/bifemsh_r/activation	/forceset/bifemsh_r/fiber_length	/forceset/glut_max2_r/activation	/forceset/glut_max2_r/fiber_length	/forceset/vas_int_r/activation	/forceset/vas_int_r/fiber_length	/forceset/med_gas_r/activation	/forceset/med_gas_r/fiber_length	/forceset/tib_ant_r/activation	/forceset/tib_ant_r/fiber_length
      0.00000000	    -10.13487855	   -480.13863232	      3.76051586	    609.92900402	      0.00000000	     -0.00000000	     -0.00000000	      0.00000000	     -0.00000000	     -0.00000000	      0.00000000	     -0.00000000	     -0.00000000	     -0.00000000	      0.00000000	      0.00000000	     83.42056681	     35.95505399	      4.05847123	      1.40786563	     -4.02118118	     15.08252237	   -117.45814339	    141.12670399	     -0.00282297	      0.05022561	     -0.49523232	      0.04517035	     17.65123684	      0.01148475	      0.02072700	      0.07053354	     -0.02440017	      0.01145874	     28.37483034	    -48.67440534	     -0.00000000	      0.00000000	     -0.00000000	      0.00000000	      0.05000000	      0.13845988	      0.05000000	      0.14463905	      0.05000000	      0.15527269	      0.05000000	      0.16139943	      0.05000000	      0.10000000	      0.05000000	      0.10000000
      0.00108345	    -10.65508415	   -480.13863232	      4.42107214	    609.42888711	     -0.00000000	     -0.00000000	      0.00000000	      0.00000000	     -0.00000000	     -0.00000000	     -0.00000000	     -0.00000000	     -0.00000000	     -0.00000000	      0.00000000	      0.00000000	     83.45838255	     33.85036308	      4.06000789	      1.42871386	     -4.00474784	     15.25222738	   -117.30416538	    143.10773081	     -0.00276827	      0.05073792	     -0.49518301	      0.04585038	     17.65124543	      0.00432006	      0.02080390	      0.07141569	     -0.02438768	      0.01159806	     28.32188159	    -49.06417472	      0.00000000	      0.00000000	      0.00000000	     -0.00000000	      0.04922808	      0.13846071	      0.04922808	      0.14464085	      0.04922808	      0.15527376	      0.04922808	      0.16138778	      0.05000000	      0.10000000	      0.05000000	      0.10000000
      0.00552275	    -12.78656370	   -480.13863232	      7.12189333	    607.33877949	     -0.00000000	     -0.00000000	      0.00000000	     -0.00000000	     -0.00000000	     -0.00000000	     -0.00000000	     -0.00000000	     -0.00000000	     -0.00000000	      0.00000000	      0.00000000	     83.58943707	     25.18163989	      4.06653643	      1.51192079	     -3.93554517	     15.91685297	   -116.65109426	    151.07422357	     -0.00253859	      0.05270151	     -0.49497334	      0.04860533	     17.65119285	     -0.02912671	      0.02112876	      0.07490975	     -0.02433497	      0.01214540	     28.10078372	    -50.50293901	      0.00000000	      0.00000000	     -0.00000000	     -0.00000000	      0.04620244	      0.13848306	      0.04620244	      0.14468213	      0.04620244	      0.15529926	      0.04620244	      0.16119842	      0.05000000	      0.10000000	      0.05000000	      0.10000000
      0.00996205	    -14.91804326	   -480.13863232	      9.81331280	    605.19607560	     -0.00000000	      0.00000000	      0.00000000	     -0.00000000	     -0.00000000	     -0.00000000	     -0.00000000	     -0.00000000	     -0.00000000	     -0.00000000	      0.00000000	     -0.00000000	     83.68188491	     16.46195175	      4.07342579	      1.59118050	     -3.86350081	     16.53260576	   -115.96320248	    158.79425815	     -0.00230068	      0.05444514	     -0.49475155	      0.05130742	     17.65097652	     -0.06954164	      0.02146870	      0.07820796	     -0.02427991	      0.01265378	     27.87385722	    -51.69103586	      0.00000000	     -0.00000000	      0.00000000	      0.00000000	      0.04338385	      0.13853911	      0.04338385	      0.14476049	      0.04338385	      0.15534974	      0.04338385	      0.16086951	      0.05000000	      0.10000000	      0.05000000	      0.10000000
      0.01440135	    -17.04952281	   -480.13863232	     12.49513414	    603.01722723	     -0.00000000	     -0.00000000	     -0.00000000	     -0.00000000	     -0.00000000	     -0.00000000	     -0.00000000	     -0.00000000	     -0.00000000	     -0.00000000	     -0.00000000	     -0.00000000	     83.73556205	      7.71916111	      4.08065732	      1.66600202	     -3.78882966	     17.10046607	   -115.24159562	    166.26285721	     -0.00205553	      0.05596724	     -0.49451788	      0.05395346	     17.65056433	     -0.11744907	      0.02182284	      0.08130834	     -0.02422268	      0.01312167	     27.64220098	    -52.63502470	     -0.00000000	     -0.00000000	      0.00000000	      0.00000000	      0.04075567	      0.13862747	      0.04075567	      0.14485683	      0.04075567	      0.15540927	      0.04075567	      0.16062633	      0.05000000	      0.10000000	      0.05000000	      0.10000000
      0.01728547	    -18.43429990	   -480.13863232	     14.23225047	    601.58943656	     -0.00000000	      0.00000000	     -0.00000000	     -0.00000000	     -0.00000000	     -0.00000000	     -0.00000000	     -0.00000000	     -0.00000000	     -0.00000000	     -0.00000000	      0.00000000	     83.74963337	      2.03949295	      4.08552914	      1.71201693	     -3.73900932	     17.44433182	   -114.75524752	    170.97846007	     -0.00189283	      0.05683724	     -0.49435983	      0.05564103	     17.65017539	     -0.15283535	      0.02206012	      0.08321612	     -0.02418442	      0.01340328	     27.48967039	    -53.12131675	     -0.00000000	     -0.00000000	      0.00000000	      0.00000000	      0.03914307	      0.13869759	      0.03914307	      0.14492582	      0.03914307	      0.15544682	      0.03914307	      0.16039094	      0.05000000	      0.10000000	      0.05000000	      0.10000000
      0.02107447	    -20.25354814	   -480.13863232	     16.50811065	    599.70637936	     -0.00000000	     -0.00000000	     -0.00000000	     -0.00000000	     -0.00000000	     -0.00000000	     -0.00000000	     -0.00000000	     -0.00000000	     -0.00000000	      0.00000000	      0.00000000	     83.74324463	     -5.40797026	      4.09212542	      1.76913827	     -3.67210176	     17.86689776	   -114.09592578	    177.00849609	     -0.00167553	      0.05783830	     -0.49414487	      0.05781872	     17.64950110	     -0.20366953	      0.02237998	      0.08559501	     -0.02413298	      0.01374577	     27.28740976	    -53.61311909	     -0.00000000	     -0.00000000	      0.00000000	      0.00000000	      0.03713067	      0.13879714	      0.03713067	      0.14502313	      0.03713067	      0.15549101	      0.03713067	      0.16013120	      0.05000000	      0.10000000	      0.05000000	      0.10000000
      0.02411339	    -21.71264722	   -480.13863232	     18.32826872	    598.19492650	     -0.00000000	      0.00000000	     -0.00000000	     -0.00000000	     -0.00000000	     -0.00000000	     -0.00000000	     -0.00000000	     -0.00000000	     -0.00000000	      0.00000000	      0.00000000	     83.71776057	    -11.35999046	      4.09756758	      1.81207291	     -3.61732110	     18.18251436	   -113.55084026	    181.70851330	     -0.00149869	      0.05852540	     -0.49396655	      0.05953187	     17.64881771	     -0.24633437	      0.02264286	      0.08739865	     -0.02409082	      0.01399745	     27.12403648	    -53.89078883	     -0.00000000	     -0.00000000	      0.00000000	      0.00000000	      0.03559886	      0.13887789	      0.03559886	      0.14510695	      0.03559886	      0.15552090	      0.03559886	      0.15987841	      0.05000000	      0.10000000	      0.05000000	      0.10000000
      0.02824686	    -23.69728673	   -480.13863232	     20.79664946	    596.14445037	     -0.00000000	      0.00000000	     -0.00000000	     -0.00000000	     -0.00000000	     -0.00000000	     -0.00000000	     -0.00000000	     -0.00000000	     -0.00000000	      0.00000000	      0.00000000	     83.65414441	    -19.41116386	      4.10517125	      1.86615112	     -3.54133082	     18.57967985	   -112.78686726	    187.90584245	     -0.00125512	      0.05929614	     -0.49371575	      0.06181246	     17.64767595	     -0.30647485	      0.02300894	      0.08970383	     -0.02403231	      0.01430624	     26.90076845	    -54.10838349	     -0.00000000	     -0.00000000	      0.00000000	      0.00000000	      0.03362540	      0.13898301	      0.03362540	      0.14522923	      0.03362540	      0.15555261	      0.03362540	      0.15958474	      0.05000000	      0.10000000	      0.05000000	      0.10000000
      0.03037538	    -24.71926973	   -480.13863232	     22.06443345	    595.09342440	     -0.00000000	      0.00000000	     -0.00000000	     -0.00000000	     -0.00000000	     -0.00000000	     -0.00000000	     -0.00000000	     -0.00000000	     -0.00000000	      0.00000000	      0.00000000	     83.60843865	    -23.53175620	      4.10917112	      1.89198683	     -3.50157922	     18.77022298	   -112.38359333	    191.00905960	     -0.00112856	      0.05962015	     -0.49358295	      0.06296388	     17.64698991	     -0.33821719	      0.02320108	      0.09082478	     -0.02400170	      0.01444992	     26.78554417	    -54.15116822	     -0.00000000	     -0.00000000	      0.00000000	      0.00000000	      0.03265605	      0.13903361	      0.03265605	      0.14529647	      0.03265605	      0.15556475	      0.03265605	      0.15937772	      0.05000000	      0.10000000	      0.05000000	      0.10000000
      0.03328301	    -26.11533838	   -480.13863232	     23.79267039	    593.66542441	     -0.00000000	      0.00000000	     -0.00000000	     -0.00000000	     -0.00000000	     -0.00000000	     -0.00000000	     -0.00000000	     -0.00000000	     -0.00000000	      0.00000000	      0.00000000	     83.53187192	    -29.12741870	      4.11472098	      1.92500493	     -3.44664128	     19.01569038	   -111.82215913	    195.15138749	     -0.00095465	      0.05998374	     -0.49339762	      0.06451080	     17.64594267	     -0.38223145	      0.02346730	      0.09228412	     -0.02395942	      0.01462913	     26.62809340	    -54.13655009	     -0.00000000	     -0.00000000	      0.00000000	      0.00000000	      0.03138073	      0.13909801	      0.03138073	      0.14539265	      0.03138073	      0.15557670	      0.03138073	      0.15914372	      0.05000000	      0.10000000	      0.05000000	      0.10000000
      0.03626079	    -27.54508392	   -480.13863232	     25.55830992	    592.21451496	     -0.00000000	      0.00000000	     -0.00000000	     -0.00000000	     -0.00000000	     -0.00000000	     -0.00000000	     -0.00000000	     -0.00000000	     -0.00000000	      0.00000000	      0.00000000	     83.43665980	    -34.81296079	      4.12050013	      1.95604113	     -3.38966384	     19.24991622	   -111.23486894	    199.27791618	     -0.00077559	      0.06026273	     -0.49320320	      0.06606325	     17.64473662	     -0.42787718	      0.02374422	      0.09369344	     -0.02391561	      0.01479202	     26.46701381	    -54.03738223	     -0.00000000	     -0.00000000	      0.00000000	      0.00000000	      0.03013050	      0.13915782	      0.03013050	      0.14549674	      0.03013050	      0.15558339	      0.03013050	      0.15886491	      0.05000000	      0.10000000	      0.05000000	      0.10000000
